<mxfile host="app.diagrams.net" modified="2024-04-28T07:54:54.456Z" agent="Mozilla/5.0 (Windows NT 10.0; Win64; x64) AppleWebKit/537.36 (KHTML, like Gecko) Chrome/124.0.0.0 Safari/537.36" etag="OQ03JXIS8hYSuw0SmlkP" version="24.3.1" type="device">
  <diagram name="Page-1" id="N7RqCoPDbs_SjNwk-ACq">
    <mxGraphModel dx="1039" dy="560" grid="1" gridSize="10" guides="1" tooltips="1" connect="1" arrows="1" fold="1" page="1" pageScale="1" pageWidth="850" pageHeight="1100" math="0" shadow="0">
      <root>
        <mxCell id="0" />
        <mxCell id="1" parent="0" />
        <mxCell id="tDpUGt-Kb1wleKsrETEu-1" value="" style="ellipse;whiteSpace=wrap;html=1;direction=north;" vertex="1" parent="1">
          <mxGeometry x="335" y="205" width="140" height="150" as="geometry" />
        </mxCell>
      </root>
    </mxGraphModel>
  </diagram>
</mxfile>
